<svg width="16" height="13" viewBox="0 0 16 13" fill="none" xmlns="http://www.w3.org/2000/svg">
<g filter="url(#filter0_d_2_6948)">
<path d="M8.09601 0.943359C9.74606 0.943359 9.95193 0.948611 10.5993 0.974872C11.2461 1.00113 11.6864 1.08884 12.0739 1.21909C12.4747 1.3525 12.8123 1.53317 13.15 1.82466C13.4588 2.08721 13.6978 2.40479 13.8502 2.75532C14.0002 3.08988 14.1023 3.47118 14.1326 4.03053C14.1612 4.5904 14.1691 4.76844 14.1691 6.19543C14.1691 7.62242 14.163 7.80046 14.1326 8.36033C14.1023 8.91968 14.0002 9.30046 13.8502 9.63554C13.6982 9.98626 13.4592 10.3039 13.15 10.5662C12.8463 10.8332 12.4791 11.0398 12.0739 11.1718C11.687 11.3015 11.2461 11.3897 10.5993 11.416C9.95193 11.4407 9.74606 11.4475 8.09601 11.4475C6.44596 11.4475 6.24008 11.4423 5.59269 11.416C4.94591 11.3897 4.50562 11.3015 4.11815 11.1718C3.71267 11.0402 3.34537 10.8335 3.04201 10.5662C2.73314 10.3037 2.49418 9.9861 2.34178 9.63554C2.19117 9.30098 2.08975 8.91968 2.05939 8.36033C2.03084 7.80046 2.02295 7.62242 2.02295 6.19543C2.02295 4.76844 2.02902 4.5904 2.05939 4.03053C2.08975 3.47066 2.19117 3.09041 2.34178 2.75532C2.49375 2.40458 2.73277 2.0869 3.04201 1.82466C3.34546 1.55745 3.71273 1.35078 4.11815 1.21909C4.50562 1.08884 4.94531 1.00113 5.59269 0.974872C6.24008 0.950187 6.44596 0.943359 8.09601 0.943359ZM8.09601 3.5694C7.29067 3.5694 6.51832 3.84607 5.94886 4.33854C5.3794 4.83102 5.05948 5.49896 5.05948 6.19543C5.05948 6.8919 5.3794 7.55984 5.94886 8.05232C6.51832 8.5448 7.29067 8.82147 8.09601 8.82147C8.90135 8.82147 9.6737 8.5448 10.2432 8.05232C10.8126 7.55984 11.1325 6.8919 11.1325 6.19543C11.1325 5.49896 10.8126 4.83102 10.2432 4.33854C9.6737 3.84607 8.90135 3.5694 8.09601 3.5694V3.5694ZM12.0435 3.43809C12.0435 3.26398 11.9635 3.09699 11.8212 2.97387C11.6788 2.85075 11.4857 2.78158 11.2844 2.78158C11.083 2.78158 10.8899 2.85075 10.7476 2.97387C10.6052 3.09699 10.5252 3.26398 10.5252 3.43809C10.5252 3.61221 10.6052 3.7792 10.7476 3.90232C10.8899 4.02543 11.083 4.0946 11.2844 4.0946C11.4857 4.0946 11.6788 4.02543 11.8212 3.90232C11.9635 3.7792 12.0435 3.61221 12.0435 3.43809ZM8.09601 4.61981C8.57921 4.61981 9.04262 4.78581 9.3843 5.0813C9.72597 5.37678 9.91793 5.77755 9.91793 6.19543C9.91793 6.61331 9.72597 7.01408 9.3843 7.30956C9.04262 7.60505 8.57921 7.77105 8.09601 7.77105C7.61281 7.77105 7.14939 7.60505 6.80772 7.30956C6.46604 7.01408 6.27409 6.61331 6.27409 6.19543C6.27409 5.77755 6.46604 5.37678 6.80772 5.0813C7.14939 4.78581 7.61281 4.61981 8.09601 4.61981V4.61981Z" fill="#2B2B2B"/>
</g>
<defs>
<filter id="filter0_d_2_6948" x="-1.97705" y="0.943359" width="20.146" height="18.5039" filterUnits="userSpaceOnUse" color-interpolation-filters="sRGB">
<feFlood flood-opacity="0" result="BackgroundImageFix"/>
<feColorMatrix in="SourceAlpha" type="matrix" values="0 0 0 0 0 0 0 0 0 0 0 0 0 0 0 0 0 0 127 0" result="hardAlpha"/>
<feOffset dy="4"/>
<feGaussianBlur stdDeviation="2"/>
<feComposite in2="hardAlpha" operator="out"/>
<feColorMatrix type="matrix" values="0 0 0 0 0 0 0 0 0 0 0 0 0 0 0 0 0 0 0.25 0"/>
<feBlend mode="normal" in2="BackgroundImageFix" result="effect1_dropShadow_2_6948"/>
<feBlend mode="normal" in="SourceGraphic" in2="effect1_dropShadow_2_6948" result="shape"/>
</filter>
</defs>
</svg>
